<?xml version="1.0" standalone="no"?>
<!DOCTYPE svg PUBLIC "-//W3C//DTD SVG 20010904//EN"
 "http://www.w3.org/TR/2001/REC-SVG-20010904/DTD/svg10.dtd">
<svg version="1.0" xmlns="http://www.w3.org/2000/svg"
 width="260.000000pt" height="260.000000pt" viewBox="0 0 260.000000 260.000000"
 preserveAspectRatio="xMidYMid meet">
<metadata>
Created by potrace 1.11, written by Peter Selinger 2001-2013
</metadata>
<g transform="translate(0.000000,260.000000) scale(0.100000,-0.100000)"
fill="#000000" stroke="none">
<path d="M1110 2505 c-173 -27 -373 -109 -519 -212 -141 -100 -306 -292 -384
-448 -37 -74 -84 -213 -104 -307 -24 -114 -24 -362 0 -476 52 -243 160 -445
332 -618 105 -105 188 -167 311 -229 348 -178 760 -178 1108 0 123 62 206 124
311 229 410 412 471 1049 148 1535 -67 100 -209 247 -304 314 -257 182 -590
260 -899 212z m-40 -927 l5 -267 218 248 c120 137 229 258 241 270 21 20 32
21 143 19 l121 -3 -219 -253 c-120 -139 -219 -255 -219 -258 0 -2 104 -146
230 -318 127 -173 230 -317 230 -320 0 -4 -57 -5 -127 -4 l-127 3 -172 240
c-95 132 -176 241 -181 242 -5 2 -39 -27 -75 -64 l-68 -68 -2 -175 -3 -175
-112 -3 -113 -3 0 581 0 581 113 -3 112 -3 5 -267z"/>
</g>
</svg>
